<?xml version="1.0" encoding="utf-8" ?>
<svg baseProfile="full" height="1024" version="1.1" width="1024" xmlns="http://www.w3.org/2000/svg" xmlns:ev="http://www.w3.org/2001/xml-events" xmlns:xlink="http://www.w3.org/1999/xlink"><defs /><path d="M 642,481 L 642,524 L 652,524 L 652,481 Z" fill="blue" stroke="none" /><path d="M 877,480 L 876,481 L 874,481 L 872,483 L 871,483 L 869,485 L 869,486 L 868,487 L 868,488 L 867,489 L 866,488 L 866,481 L 856,481 L 856,524 L 866,524 L 866,501 L 867,500 L 867,498 L 868,497 L 868,496 L 873,491 L 874,491 L 875,490 L 881,490 L 881,480 Z" fill="blue" stroke="none" /><path d="M 823,480 L 822,481 L 819,481 L 818,482 L 816,482 L 814,484 L 813,484 L 811,486 L 811,487 L 810,488 L 810,489 L 809,490 L 809,491 L 808,492 L 809,493 L 811,493 L 812,494 L 814,494 L 815,495 L 818,495 L 819,496 L 819,493 L 823,489 L 825,489 L 826,488 L 828,488 L 829,489 L 832,489 L 835,492 L 835,493 L 836,494 L 836,498 L 835,499 L 819,499 L 818,500 L 815,500 L 814,501 L 813,501 L 811,503 L 810,503 L 809,504 L 809,505 L 808,506 L 808,507 L 807,508 L 807,511 L 806,512 L 806,514 L 807,515 L 807,517 L 808,518 L 808,519 L 809,520 L 809,521 L 810,522 L 811,522 L 813,524 L 815,524 L 816,525 L 827,525 L 828,524 L 829,524 L 830,523 L 831,523 L 835,519 L 836,520 L 836,524 L 847,524 L 846,523 L 846,491 L 845,490 L 845,489 L 844,488 L 844,487 L 840,483 L 839,483 L 838,482 L 837,482 L 836,481 L 833,481 L 832,480 Z" fill="blue" stroke="none" /><path d="M 676,480 L 675,481 L 672,481 L 671,482 L 670,482 L 669,483 L 668,483 L 664,487 L 664,488 L 663,489 L 663,491 L 662,492 L 662,493 L 665,493 L 666,494 L 669,494 L 670,495 L 672,495 L 672,494 L 673,493 L 673,492 L 676,489 L 678,489 L 679,488 L 682,488 L 683,489 L 685,489 L 686,490 L 687,490 L 688,491 L 688,492 L 689,493 L 689,496 L 690,497 L 690,498 L 689,499 L 672,499 L 671,500 L 669,500 L 668,501 L 666,501 L 661,506 L 661,508 L 660,509 L 660,516 L 661,517 L 661,519 L 665,523 L 666,523 L 667,524 L 668,524 L 669,525 L 680,525 L 681,524 L 683,524 L 685,522 L 686,522 L 688,520 L 688,519 L 689,518 L 690,519 L 690,524 L 700,524 L 700,495 L 699,494 L 699,490 L 698,489 L 698,488 L 696,486 L 696,485 L 695,485 L 692,482 L 690,482 L 689,481 L 686,481 L 685,480 Z" fill="blue" stroke="none" /><path d="M 558,480 L 557,481 L 554,481 L 553,482 L 552,482 L 551,483 L 550,483 L 549,484 L 548,484 L 544,488 L 544,489 L 542,491 L 542,493 L 541,494 L 541,496 L 540,497 L 540,509 L 541,510 L 541,512 L 542,513 L 542,514 L 543,515 L 543,516 L 545,518 L 545,519 L 547,521 L 548,521 L 550,523 L 551,523 L 552,524 L 554,524 L 555,525 L 558,525 L 559,526 L 565,526 L 566,525 L 569,525 L 570,524 L 572,524 L 573,523 L 574,523 L 582,515 L 582,514 L 581,514 L 580,513 L 577,513 L 576,512 L 573,512 L 572,511 L 570,513 L 570,514 L 569,515 L 568,515 L 567,516 L 566,516 L 565,517 L 559,517 L 558,516 L 557,516 L 556,515 L 555,515 L 553,513 L 553,512 L 551,510 L 551,508 L 550,507 L 551,506 L 583,506 L 583,500 L 582,499 L 582,496 L 581,495 L 581,493 L 580,492 L 580,491 L 579,490 L 579,489 L 573,483 L 572,483 L 571,482 L 570,482 L 569,481 L 566,481 L 565,480 Z" fill="blue" stroke="none" /><path d="M 905,479 L 904,480 L 899,480 L 898,481 L 896,481 L 895,482 L 894,482 L 888,488 L 888,489 L 886,491 L 886,492 L 885,493 L 885,496 L 884,497 L 884,508 L 885,509 L 885,512 L 886,513 L 886,514 L 887,515 L 887,516 L 893,522 L 894,522 L 896,524 L 898,524 L 899,525 L 913,525 L 914,524 L 916,524 L 917,523 L 918,523 L 925,516 L 925,515 L 926,514 L 925,514 L 924,513 L 921,513 L 920,512 L 918,512 L 917,511 L 916,511 L 915,512 L 915,513 L 914,514 L 913,514 L 911,516 L 909,516 L 908,517 L 904,517 L 903,516 L 901,516 L 896,511 L 896,510 L 895,509 L 895,508 L 894,507 L 895,506 L 927,506 L 927,500 L 926,499 L 926,495 L 925,494 L 925,492 L 924,491 L 924,490 L 922,488 L 922,487 L 918,483 L 917,483 L 916,482 L 915,482 L 914,481 L 913,481 L 912,480 L 907,480 L 906,479 Z" fill="blue" stroke="none" /><path d="M 621,465 L 621,486 L 620,487 L 615,482 L 614,482 L 613,481 L 601,481 L 600,482 L 599,482 L 598,483 L 597,483 L 596,484 L 595,484 L 592,487 L 592,488 L 591,489 L 591,490 L 590,491 L 590,492 L 589,493 L 589,495 L 588,496 L 588,510 L 589,511 L 589,513 L 590,514 L 590,515 L 591,516 L 591,517 L 597,523 L 598,523 L 599,524 L 601,524 L 602,525 L 612,525 L 613,524 L 615,524 L 620,519 L 620,518 L 621,517 L 622,518 L 622,524 L 632,524 L 632,488 L 631,487 L 631,484 L 632,483 L 632,482 L 631,481 L 631,466 L 632,465 Z" fill="blue" stroke="none" /><path d="M 471,465 L 471,524 L 482,524 L 482,488 L 483,487 L 484,488 L 484,489 L 485,490 L 485,492 L 486,493 L 486,494 L 487,495 L 487,496 L 488,497 L 488,498 L 489,499 L 489,500 L 490,501 L 490,503 L 491,504 L 491,505 L 492,506 L 492,507 L 493,508 L 493,509 L 494,510 L 494,512 L 495,513 L 495,514 L 496,515 L 496,516 L 497,517 L 507,517 L 507,515 L 508,514 L 508,513 L 509,512 L 509,511 L 510,510 L 510,509 L 511,508 L 511,507 L 512,506 L 512,504 L 513,503 L 513,502 L 514,501 L 514,500 L 515,499 L 515,498 L 516,497 L 516,496 L 517,495 L 517,493 L 518,492 L 518,491 L 519,490 L 519,489 L 520,488 L 520,487 L 521,486 L 522,487 L 522,514 L 521,515 L 522,516 L 522,522 L 521,523 L 521,524 L 532,524 L 532,465 L 519,465 L 518,466 L 518,468 L 517,469 L 517,470 L 516,471 L 516,472 L 515,473 L 515,475 L 514,476 L 514,477 L 513,478 L 513,480 L 512,481 L 512,482 L 511,483 L 511,484 L 510,485 L 510,487 L 509,488 L 509,489 L 508,490 L 508,491 L 507,492 L 507,494 L 506,495 L 506,496 L 505,497 L 505,499 L 504,500 L 504,501 L 503,502 L 503,503 L 502,504 L 501,503 L 501,502 L 500,501 L 500,500 L 499,499 L 499,498 L 498,497 L 498,495 L 497,494 L 497,493 L 496,492 L 496,491 L 495,490 L 495,488 L 494,487 L 494,486 L 493,485 L 493,484 L 492,483 L 492,482 L 491,481 L 491,479 L 490,478 L 490,477 L 489,476 L 489,475 L 488,474 L 488,472 L 487,471 L 487,470 L 486,469 L 486,468 L 485,467 L 485,465 Z" fill="blue" stroke="none" /><path d="M 760,464 L 760,524 L 770,524 L 770,498 L 771,497 L 771,496 L 772,495 L 772,494 L 774,492 L 775,492 L 776,491 L 777,491 L 778,490 L 782,490 L 783,491 L 784,491 L 785,492 L 786,492 L 788,494 L 788,496 L 789,497 L 789,524 L 800,524 L 800,495 L 799,494 L 799,491 L 798,490 L 798,489 L 797,488 L 797,487 L 792,482 L 791,482 L 790,481 L 787,481 L 786,480 L 781,480 L 780,481 L 777,481 L 775,483 L 774,483 L 772,485 L 772,486 L 771,487 L 770,486 L 770,464 L 763,464 L 762,465 L 761,464 Z" fill="blue" stroke="none" /><path d="M 723,464 L 722,465 L 720,465 L 719,466 L 717,466 L 715,468 L 714,468 L 711,471 L 711,472 L 709,474 L 709,476 L 708,477 L 708,486 L 709,487 L 709,488 L 710,489 L 710,490 L 715,495 L 716,495 L 717,496 L 718,496 L 719,497 L 721,497 L 722,498 L 724,498 L 725,499 L 728,499 L 729,500 L 732,500 L 733,501 L 735,501 L 736,502 L 737,502 L 740,505 L 740,506 L 741,507 L 741,509 L 740,510 L 740,511 L 736,515 L 733,515 L 732,516 L 727,516 L 726,515 L 724,515 L 723,514 L 722,514 L 718,510 L 718,509 L 717,508 L 717,506 L 714,506 L 713,507 L 710,507 L 709,508 L 706,508 L 706,509 L 707,510 L 707,512 L 708,513 L 708,514 L 709,515 L 709,516 L 711,518 L 711,519 L 712,519 L 715,522 L 716,522 L 717,523 L 719,523 L 720,524 L 722,524 L 723,525 L 736,525 L 737,524 L 739,524 L 740,523 L 742,523 L 743,522 L 744,522 L 750,516 L 750,515 L 751,514 L 751,511 L 752,510 L 752,505 L 751,504 L 751,501 L 749,499 L 749,498 L 745,494 L 744,494 L 743,493 L 742,493 L 741,492 L 739,492 L 738,491 L 736,491 L 735,490 L 732,490 L 731,489 L 728,489 L 727,488 L 725,488 L 724,487 L 723,487 L 720,484 L 720,483 L 719,482 L 719,479 L 720,478 L 720,477 L 722,475 L 723,475 L 724,474 L 725,474 L 726,473 L 733,473 L 734,474 L 736,474 L 740,478 L 740,480 L 741,481 L 741,482 L 745,482 L 746,481 L 751,481 L 751,478 L 750,477 L 750,475 L 749,474 L 749,473 L 743,467 L 742,467 L 741,466 L 740,466 L 739,465 L 736,465 L 735,464 Z" fill="blue" stroke="none" /><path d="M 644,462 L 641,465 L 641,471 L 644,474 L 650,474 L 653,471 L 653,465 L 650,462 Z" fill="blue" stroke="none" /><path d="M 147,401 L 146,402 L 142,402 L 141,403 L 140,403 L 139,404 L 137,404 L 136,405 L 135,405 L 133,407 L 132,407 L 130,409 L 129,409 L 123,415 L 123,416 L 121,418 L 121,419 L 120,420 L 120,421 L 119,422 L 119,423 L 118,424 L 118,425 L 117,426 L 117,428 L 116,429 L 116,433 L 115,434 L 115,552 L 116,553 L 116,556 L 117,557 L 117,559 L 118,560 L 118,562 L 119,563 L 119,564 L 120,565 L 120,566 L 122,568 L 122,569 L 124,571 L 124,572 L 130,578 L 131,578 L 133,580 L 134,580 L 135,581 L 136,581 L 137,582 L 138,582 L 139,583 L 140,583 L 141,584 L 143,584 L 144,585 L 147,585 L 148,586 L 309,586 L 310,585 L 314,585 L 315,584 L 317,584 L 318,583 L 319,583 L 320,582 L 321,582 L 322,581 L 323,581 L 324,580 L 325,580 L 328,577 L 329,577 L 333,573 L 333,572 L 336,569 L 336,568 L 337,567 L 337,566 L 339,564 L 339,562 L 340,561 L 340,559 L 341,558 L 341,556 L 342,555 L 342,550 L 343,549 L 343,437 L 342,436 L 342,431 L 341,430 L 341,427 L 340,426 L 340,425 L 339,424 L 339,423 L 338,422 L 338,421 L 337,420 L 337,419 L 335,417 L 335,416 L 327,408 L 326,408 L 324,406 L 323,406 L 322,405 L 321,405 L 320,404 L 319,404 L 318,403 L 316,403 L 315,402 L 312,402 L 311,401 Z" fill="blue" stroke="none" /><path d="M 480,368 L 479,369 L 475,369 L 474,370 L 472,370 L 471,371 L 469,371 L 468,372 L 467,372 L 466,373 L 465,373 L 463,375 L 462,375 L 459,378 L 458,378 L 455,381 L 455,382 L 452,385 L 452,386 L 450,388 L 450,389 L 449,390 L 449,391 L 448,392 L 448,393 L 447,394 L 447,397 L 446,398 L 446,401 L 445,402 L 445,414 L 446,415 L 446,419 L 445,420 L 444,420 L 441,423 L 440,423 L 437,426 L 436,426 L 433,429 L 432,429 L 429,432 L 428,432 L 425,435 L 424,435 L 421,438 L 420,438 L 418,440 L 417,440 L 414,443 L 413,443 L 410,446 L 409,445 L 407,445 L 406,444 L 403,444 L 402,443 L 388,443 L 387,444 L 384,444 L 383,445 L 382,445 L 381,446 L 379,446 L 378,447 L 377,447 L 375,449 L 374,449 L 373,450 L 372,450 L 362,460 L 362,461 L 360,463 L 360,464 L 359,465 L 359,466 L 358,467 L 358,468 L 357,469 L 357,470 L 356,471 L 356,473 L 355,474 L 355,476 L 354,477 L 354,483 L 353,484 L 353,490 L 354,491 L 354,497 L 355,498 L 355,501 L 356,502 L 356,503 L 357,504 L 357,506 L 358,507 L 358,508 L 359,509 L 359,510 L 361,512 L 361,513 L 363,515 L 363,516 L 371,524 L 372,524 L 374,526 L 375,526 L 376,527 L 377,527 L 378,528 L 379,528 L 380,529 L 381,529 L 382,530 L 384,530 L 385,531 L 389,531 L 390,532 L 401,532 L 402,531 L 405,531 L 406,530 L 407,530 L 411,534 L 412,534 L 418,540 L 419,540 L 425,546 L 426,546 L 432,552 L 433,552 L 439,558 L 440,558 L 446,564 L 447,564 L 449,566 L 449,567 L 448,568 L 448,569 L 447,570 L 447,572 L 446,573 L 446,577 L 445,578 L 445,589 L 446,590 L 446,593 L 447,594 L 447,597 L 448,598 L 448,599 L 449,600 L 449,601 L 450,602 L 450,603 L 451,604 L 451,605 L 453,607 L 453,608 L 461,616 L 462,616 L 464,618 L 465,618 L 466,619 L 467,619 L 468,620 L 469,620 L 470,621 L 471,621 L 472,622 L 475,622 L 476,623 L 480,623 L 481,624 L 489,624 L 490,623 L 495,623 L 496,622 L 498,622 L 499,621 L 501,621 L 502,620 L 503,620 L 504,619 L 505,619 L 507,617 L 508,617 L 512,613 L 513,613 L 514,612 L 514,611 L 518,607 L 518,606 L 520,604 L 520,603 L 521,602 L 521,601 L 522,600 L 522,598 L 523,597 L 523,595 L 524,594 L 524,591 L 525,590 L 525,578 L 524,577 L 524,573 L 523,572 L 523,570 L 522,569 L 522,568 L 521,567 L 521,566 L 520,565 L 520,564 L 519,563 L 519,562 L 516,559 L 516,558 L 510,552 L 509,552 L 507,550 L 506,550 L 504,548 L 503,548 L 502,547 L 501,547 L 500,546 L 498,546 L 497,545 L 494,545 L 493,544 L 477,544 L 476,545 L 473,545 L 472,546 L 470,546 L 469,547 L 468,547 L 467,548 L 466,548 L 465,549 L 463,547 L 462,547 L 456,541 L 455,541 L 449,535 L 448,535 L 442,529 L 441,529 L 435,523 L 434,523 L 428,517 L 431,514 L 431,513 L 433,511 L 433,510 L 434,509 L 434,508 L 435,507 L 435,506 L 436,505 L 436,504 L 437,503 L 437,501 L 438,500 L 438,496 L 439,495 L 439,480 L 438,479 L 438,476 L 437,475 L 437,473 L 436,472 L 436,471 L 435,470 L 435,469 L 434,468 L 434,467 L 433,466 L 433,465 L 432,464 L 432,463 L 430,461 L 430,460 L 431,459 L 432,459 L 435,456 L 436,456 L 439,453 L 440,453 L 442,451 L 443,451 L 446,448 L 447,448 L 450,445 L 451,445 L 454,442 L 455,442 L 458,439 L 459,439 L 461,441 L 462,441 L 464,443 L 465,443 L 466,444 L 467,444 L 468,445 L 469,445 L 470,446 L 472,446 L 473,447 L 476,447 L 477,448 L 493,448 L 494,447 L 497,447 L 498,446 L 500,446 L 501,445 L 502,445 L 503,444 L 504,444 L 505,443 L 506,443 L 508,441 L 509,441 L 518,432 L 518,431 L 519,430 L 519,429 L 521,427 L 521,426 L 522,425 L 522,423 L 523,422 L 523,420 L 524,419 L 524,416 L 525,415 L 525,403 L 524,402 L 524,398 L 523,397 L 523,395 L 522,394 L 522,393 L 521,392 L 521,391 L 520,390 L 520,389 L 519,388 L 519,387 L 517,385 L 517,384 L 509,376 L 508,376 L 506,374 L 505,374 L 504,373 L 503,373 L 502,372 L 501,372 L 500,371 L 498,371 L 497,370 L 495,370 L 494,369 L 490,369 L 489,368 Z" fill="blue" stroke="none" /></svg>